<svg version="1.0" xmlns="http://www.w3.org/2000/svg" width="346.667" height="346.667" viewBox="0 0 260 260"><path d="M123.7 28.6c-.1.1-3.8.5-8.1.8-49.3 4-94.8 35.6-109.5 76C1.2 119.1 0 126.8.4 142c.4 14.4 2.5 23.9 8.1 36.4 2.6 6 9.6 17.3 13.3 21.7 1.1 1.3 3.1 3.7 4.5 5.4l2.4 2.9 6.9-4.5c9.6-6.4 13.3-8.5 19.6-11.3l5.5-2.5 4.8 7c14.4 21.1 39.5 34.4 64.5 34.2 27-.3 50.6-12.8 65.3-34.8l4.4-6.5 8.9 4.4c4.9 2.5 11.9 6.5 15.7 9 3.7 2.5 6.9 4.6 7.2 4.6.2 0 2.7-2.8 5.5-6.3 2.8-3.4 5.5-6.8 6.1-7.5 2.5-3 10.1-18.5 12.3-24.8 3.9-11.8 4.9-19.3 4.3-34.7-.4-11.8-.9-15.6-3.2-22.7-8.7-27.3-26.4-48.7-52.9-64.3-10.6-6.1-28.4-13.2-38.5-15.2-.9-.2-2.7-.6-4.1-.9-6.8-1.6-19.4-2.9-29.3-3-4.3-.1-7.9 0-8 0z"/></svg>