<svg xmlns="http://www.w3.org/2000/svg" id="Layer_1" data-name="Layer 1" viewBox="0 0 56 78">
  <path fill="#4caf50" d="M14118 1652c0 16-28 50-28 50s-28-34-28-50a28 28 0 0 1 56 0Z" transform="translate(-14062 -1624)"/>
  <path fill="#fff" d="M14099 1657a11 11 0 0 1-18 0l-3 1h-2a13 13 0 0 1 1-18 18 18 0 0 1 10-5 19 19 0 0 1 12 2 15 15 0 0 1 7 8 12 12 0 0 1 0 10 14 14 0 0 1-2 3h-2l-3-1Zm-7-21 1 3 1 2a11 11 0 0 1 4 4h1a13 13 0 0 1 2-1h3c-1-4-6-7-12-8Zm-4 0c-6 1-11 4-12 8a10 10 0 0 1 5 1l1-1a10 10 0 0 1 3-2 1 1 0 0 0 1-1 11 11 0 0 1 2-5Zm5 8v-1l-1-1a9 9 0 0 0-4 0l-1 1a15 15 0 0 0 1 7 12 12 0 0 0 2 2 10 10 0 0 0 1-1 14 14 0 0 0 2-7Zm-11 3a9 9 0 0 0-1 6 26 26 0 0 0 3 1 6 6 0 0 0 3 0 1 1 0 0 0 1-1 10 10 0 0 0 0-1 10 10 0 0 0-3-4l-3-1Zm16 0a15 15 0 0 0-4 3 7 7 0 0 0-2 2c0 2 0 2 2 2a10 10 0 0 0 5-1 16 16 0 0 0 0-3 9 9 0 0 0-1-3Zm3 5a13 13 0 0 0 3-3 6 6 0 0 0 1-2l-1-2a9 9 0 0 0-5 1 11 11 0 0 1 2 6Zm-20-6a7 7 0 0 0-6 0 4 4 0 0 0 1 2 12 12 0 0 0 3 4 11 11 0 0 1 2-6Zm-1 9v-1a1 1 0 0 0-1-1 14 14 0 0 1-5-4 12 12 0 0 0 3 8Zm26-6a15 15 0 0 1-5 5 1 1 0 0 0-1 0v1l3 2a12 12 0 0 0 3-8Zm-24 7a9 9 0 0 0 4 4h1a7 7 0 0 0 1-3 1 1 0 0 0-1-1h-5Zm16 0a32 32 0 0 0-4 0 8 8 0 0 0-2 0v1a7 7 0 0 0 1 3h1a9 9 0 0 0 4-4Zm-6-15a8 8 0 0 0-1-4h-2a7 7 0 0 0-1 3l-1 1a11 11 0 0 1 5 0Zm-4 19a9 9 0 0 0 4 0 8 8 0 0 0-2-2 7 7 0 0 0-2 2Zm-5-15 3 3v-5a9 9 0 0 0-3 2Zm14 0a8 8 0 0 0-3-2v5Zm-7 9-1 1 1 1h1v-1Z" transform="translate(-14062 -1624)"/>
</svg>
