<svg xmlns="http://www.w3.org/2000/svg" id="Layer_1" data-name="Layer 1" viewBox="0 0 56 78"><path fill="#4caf50" d="M14118 1652c0 16-28 50-28 50s-28-34-28-50a28 28 0 0156 0z" transform="translate(-14062 -1624)"/><path fill="#fff" d="M14099 1657a11 11 0 01-18 0l-3 1h-2a13 13 0 011-18 18 18 0 0110-5 19 19 0 0112 2 15 15 0 017 8 12 12 0 010 10 14 14 0 01-2 3h-2l-3-1zm-7-21l1 3 1 2a11 11 0 014 4h1a13 13 0 012-1h3c-1-4-6-7-12-8zm-4 0c-6 1-11 4-12 8a10 10 0 015 1l1-1a10 10 0 013-2 1 1 0 001-1 11 11 0 012-5zm5 8v-1l-1-1a9 9 0 00-4 0l-1 1a15 15 0 001 7 12 12 0 002 2 10 10 0 001-1 14 14 0 002-7zm-11 3a9 9 0 00-1 6 26 26 0 003 1 6 6 0 003 0 1 1 0 001-1 10 10 0 000-1 10 10 0 00-3-4l-3-1zm16 0a15 15 0 00-4 3 7 7 0 00-2 2c0 2 0 2 2 2a10 10 0 005-1 16 16 0 000-3 9 9 0 00-1-3zm3 5a13 13 0 003-3 6 6 0 001-2l-1-2a9 9 0 00-5 1 11 11 0 012 6zm-20-6a7 7 0 00-6 0 4 4 0 001 2 12 12 0 003 4 11 11 0 012-6zm-1 9v-1a1 1 0 00-1-1 14 14 0 01-5-4 12 12 0 003 8zm26-6a15 15 0 01-5 5 1 1 0 00-1 0v1l3 2a12 12 0 003-8zm-24 7a9 9 0 004 4h1a7 7 0 001-3 1 1 0 00-1-1h-5zm16 0a32 32 0 00-4 0 8 8 0 00-2 0v1a7 7 0 001 3h1a9 9 0 004-4zm-6-15a8 8 0 00-1-4h-2a7 7 0 00-1 3l-1 1a11 11 0 015 0zm-4 19a9 9 0 004 0 8 8 0 00-2-2 7 7 0 00-2 2zm-5-15l3 3v-5a9 9 0 00-3 2zm14 0a8 8 0 00-3-2v5zm-7 9l-1 1 1 1h1v-1z" transform="translate(-14062 -1624)"/></svg>