<?xml version="1.0" standalone="no"?>
<!DOCTYPE svg PUBLIC "-//W3C//DTD SVG 20010904//EN"
 "http://www.w3.org/TR/2001/REC-SVG-20010904/DTD/svg10.dtd">
<svg version="1.0" xmlns="http://www.w3.org/2000/svg"
 width="260.000000pt" height="260.000000pt" viewBox="0 0 260.000000 260.000000"
 preserveAspectRatio="xMidYMid meet">
<metadata>
Created by potrace 1.11, written by Peter Selinger 2001-2013
</metadata>
<g transform="translate(0.000000,260.000000) scale(0.100000,-0.100000)"
fill="#000000" stroke="none">
<path d="M1237 2314 c-1 -1 -38 -5 -81 -8 -493 -40 -948 -356 -1095 -760 -49
-137 -61 -214 -57 -366 4 -144 25 -239 81 -364 26 -60 96 -173 133 -217 11
-13 31 -37 45 -54 l24 -29 69 45 c96 64 133 85 196 113 l55 25 48 -70 c144
-211 395 -344 645 -342 270 3 506 128 653 348 l44 65 89 -44 c49 -25 119 -65
157 -90 37 -25 69 -46 72 -46 2 0 27 28 55 63 28 34 55 68 61 75 25 30 101
185 123 248 39 118 49 193 43 347 -4 118 -9 156 -32 227 -87 273 -264 487
-529 643 -106 61 -284 132 -385 152 -9 2 -27 6 -41 9 -68 16 -194 29 -293 30
-43 1 -79 0 -80 0z"/>
</g>
</svg>
