<svg xmlns="http://www.w3.org/2000/svg" fill="none" viewBox="0 0 16 16">
  <path fill="#000" d="M6.154 14.545c0 .402-.12.745-.36 1.029-.241.284-.531.426-.87.426-.34 0-.63-.142-.871-.426a1.54 1.54 0 0 1-.36-1.029c0-.401.12-.744.36-1.028.24-.284.53-.426.87-.426.34 0 .63.142.87.426.24.284.36.627.36 1.028Zm8.615 0c0 .402-.12.745-.36 1.029-.24.284-.53.426-.87.426-.34 0-.63-.142-.87-.426a1.54 1.54 0 0 1-.361-1.029c0-.401.12-.744.36-1.028.24-.284.53-.426.87-.426.34 0 .63.142.87.426.241.284.361.627.361 1.028ZM16 2.182V8a.797.797 0 0 1-.154.483.575.575 0 0 1-.394.244L5.413 10.114c.007.053.021.134.044.244.022.11.041.21.057.301s.024.174.024.25c0 .121-.077.364-.23.727h8.846a.55.55 0 0 1 .432.216.766.766 0 0 1 .183.512c0 .197-.06.367-.183.511a.551.551 0 0 1-.432.216H4.308a.551.551 0 0 1-.433-.216.766.766 0 0 1-.183-.511c0-.106.035-.256.106-.45a9.15 9.15 0 0 1 .284-.675l.197-.432-1.702-9.352H.615a.551.551 0 0 1-.432-.216A.767.767 0 0 1 0 .727C0 .53.06.36.183.216A.551.551 0 0 1 .615 0h2.462c.102 0 .194.025.274.074.08.05.144.108.192.176a.97.97 0 0 1 .125.278c.035.118.06.218.072.302l.053.335c.023.14.037.237.043.29h11.548a.55.55 0 0 1 .433.215.766.766 0 0 1 .183.512Z"/>
</svg>
