<svg xmlns="http://www.w3.org/2000/svg" fill="none" viewBox="0 0 20 20">
  <path fill="#000" d="M10 0C4.48609 0 0 4.48609 0 10c0 5.5139 4.48609 10 10 10 5.5139 0 10-4.4861 10-10 0-5.51391-4.4861-10-10-10Zm4.0445 12.8662c.1628.1627.1628.4265 0 .5892l-.589.5891c-.1628.1627-.4266.1627-.5893 0L10 11.1784l-2.86617 2.8662c-.16277.1627-.42653.1627-.5893 0l-.5891-.5892c-.16277-.1627-.16277-.4265 0-.5892L8.8216 9.99996 5.95543 7.13379c-.16277-.1627-.16277-.42652 0-.58926l.5891-.58914c.16277-.16269.42653-.16269.5893 0L10 8.82156l2.8662-2.86617c.1627-.16269.4265-.16269.5893 0l.5891.58914c.1627.1627.1627.42652 0 .58926l-2.8662 2.86617 2.8661 2.86624Z"/>
</svg>
