<svg xmlns="http://www.w3.org/2000/svg" fill="none" viewBox="0 0 20 20">
  <path fill="#000" d="M14.5.83334c-1.7917.00277-3.4701.87663-4.5 2.34261C8.97005 1.70997 7.29167.83611 5.5.83335 2.56999.83334 0 3.55941 0 6.66667 0 9.695 1.70996 12.814 4.94531 15.6867a26.6086 26.6086 0 0 0 4.9017 3.4427.33381.33381 0 0 0 .30599 0 26.6109 26.6109 0 0 0 4.9001-3.4427C18.29 12.814 20 9.695 20 6.66668 20 3.55942 17.43.83334 14.5.83334ZM10 18.4543C8.77572 17.7787.66667 13.0586.66667 6.66668c0-2.75228 2.2583-5.16667 4.83333-5.16667 1.74447.00309 3.35254.94417 4.20964 2.4637A.34695.34695 0 0 0 10 4.12062c.117 0 .2262-.05892.2904-.15691.8571-1.51953 2.4651-2.46061 4.2096-2.4637 2.575 0 4.8333 2.41439 4.8333 5.16667 0 6.39192-8.109 11.11202-9.3333 11.78762Z"/>
</svg>
