<svg xmlns="http://www.w3.org/2000/svg" fill="none" viewBox="0 0 30 30">
  <path fill="#000" d="M25.6066 4.3934C22.7735 1.5602 19.0066 0 15 0 10.9934 0 7.2265 1.5602 4.3934 4.3934 1.5602 7.2265 0 10.9934 0 15c0 4.0066 1.5602 7.7735 4.3934 10.6066C7.2265 28.4398 10.9934 30 15 30c4.0066 0 7.7735-1.5602 10.6066-4.3934C28.4397 22.7734 30 19.0066 30 15c0-4.0066-1.5602-7.7735-4.3934-10.6066ZM15 29.0527C7.2513 29.0527.9473 22.7487.9473 15 .9473 7.2513 7.2513.9473 15 .9473c7.7487 0 14.0527 6.304 14.0527 14.0527 0 7.7487-6.304 14.0527-14.0527 14.0527Z"/>
  <path fill="#000" d="M20.3816 5.6843H9.6185c-2.1694 0-3.9342 1.765-3.9342 3.9342v10.7632c0 2.1693 1.7649 3.9342 3.9342 3.9342h10.7632c2.1692 0 3.9341-1.7649 3.9341-3.9342V9.6185c0-2.1693-1.7649-3.9342-3.9342-3.9342Zm2.9868 14.6973c0 1.647-1.3399 2.9869-2.9868 2.9869H9.6185c-1.647 0-2.9869-1.3399-2.9869-2.9869V9.6186c0-1.647 1.34-2.987 2.9869-2.987h10.7632c1.6469 0 2.9868 1.34 2.9868 2.987v10.763h-.0001Z"/>
  <path fill="#000" d="M19.8868 14.7201c-.1401-2.4922-2.168-4.4971-4.6616-4.6095-2.8774-.1298-5.2461 2.2401-5.1147 5.1179.1139 2.4937 2.1205 4.5207 4.6129 4.6588 1.0519.0583 2.0369-.2184 2.8596-.7321.2563-.16.2981-.5164.0844-.73l-.0067-.0067c-.1557-.1558-.3972-.1793-.5843-.063a3.9236 3.9236 0 0 1-2.1186.5919c-2.1946-.0231-3.9654-1.8659-3.9036-4.0597.0622-2.2079 1.9462-3.9681 4.1987-3.8269 1.941.1216 3.5209 1.6693 3.6808 3.6075.0651.7896-.1047 1.5355-.4459 2.1772-.0977.1838-.0676.4091.0796.5562l.0072.0073c.2211.2211.595.1691.7427-.1064.4091-.7632.6222-1.6464.5695-2.5825ZM20.0527 10.5791c.6976 0 1.2631-.5656 1.2631-1.2632 0-.6976-.5655-1.2632-1.2631-1.2632-.6977 0-1.2632.5656-1.2632 1.2632 0 .6976.5655 1.2632 1.2632 1.2632Z"/>
</svg>
