<svg xmlns="http://www.w3.org/2000/svg" fill="none" viewBox="0 0 19 19">
  <path fill="#000" d="M8.3672 0C3.7536 0 0 3.7536 0 8.3672c0 4.6138 3.7536 8.3672 8.3672 8.3672 4.6138 0 8.3672-3.7534 8.3672-8.3672C16.7344 3.7536 12.981 0 8.3672 0Zm0 15.1897c-3.7619 0-6.8225-3.0606-6.8225-6.8225s3.0606-6.8225 6.8225-6.8225 6.8225 3.0606 6.8225 6.8225-3.0606 6.8225-6.8225 6.8225Z"/>
  <path fill="#000" d="m18.7737 17.6816-4.4282-4.4282a.772.772 0 0 0-1.0921 0 .772.772 0 0 0 0 1.0921l4.4282 4.4282a.7697.7697 0 0 0 .5461.2263.7698.7698 0 0 0 .546-.2263.7718.7718 0 0 0 0-1.0921Z"/>
</svg>
