<svg xmlns="http://www.w3.org/2000/svg" fill="none" viewBox="0 0 30 30">
  <path fill="#000" d="M25.6066 4.39342C22.7735 1.56023 19.0066 0 15 0 10.9934 0 7.22654 1.56023 4.39342 4.39342 1.56023 7.22654 0 10.9934 0 15c0 4.0066 1.56023 7.7735 4.39342 10.6066C7.22654 28.4398 10.9934 30 15 30c4.0066 0 7.7735-1.5602 10.6066-4.3934C28.4397 22.7734 30 19.0066 30 15c0-4.0066-1.5602-7.77346-4.3934-10.60658ZM15 29.0527C7.25133 29.0527.94734 22.7487.94734 15 .94734 7.25133 7.25133.94734 15 .94734 22.7487.94734 29.0527 7.25133 29.0527 15c0 7.7487-6.304 14.0527-14.0527 14.0527Z"/>
  <path fill="#000" d="M23.4955 5.77961a.47365.47365 0 0 0-.5026-.0423L4.67708 15.211c-.15832.0818-.25728.2457-.25611.424a.47348.47348 0 0 0 .26186.4204l4.79086 2.3953v4.7465c0 .1242.04224.2471.12773.3373.09457.0998.22025.1498.346.1498a.4733.4733 0 0 0 .23008-.0596l5.4811-3.0451 4.1951 1.7979c.0893.0383.1881.0541.2836.0363.1966-.0367.3427-.1873.38-.3734l1.0614-5.3072c.0586-.2932-.1656-.5666-.4645-.5666-.2259-.0001-.4202.1592-.4645.3806l-.947 4.7349-3.8845-1.6648a.47396.47396 0 0 0-.4166.0213l-4.9805 2.7669V18.158a.4737.4737 0 0 0-.2619-.4237l-4.2196-2.1098 16.6131-8.59303-1.4417 7.20833c-.0586.2932.1656.5666.4645.5666.2258 0 .4202-.1594.4646-.3808l1.6349-8.17478a.4737.4737 0 0 0-.1795-.47121Z"/>
  <path fill="#000" d="M20.4244 9.65373c-.1489-.18844-.4154-.23578-.62-.10975l-8.2105 5.05262a.47375.47375 0 0 0-.2254.4035v5.0526c0 .2197.151.4105.3648.461a.47355.47355 0 0 0 .109.0128c.1762 0 .342-.0988.4235-.2619l1.8603-3.7207 6.2615-6.2615c.1699-.1699.1857-.44012.0368-.62867Zm-7.0225 6.27447a.47454.47454 0 0 0-.0886.1231l-.9974 1.9948v-2.7814l4.5489-2.7994-3.4629 3.4629Z"/>
</svg>
