<svg xmlns="http://www.w3.org/2000/svg" fill="none" viewBox="0 0 16 16">
  <path fill="#000" d="M8.00113 0C5.7154 0 3.84692 1.86847 3.84692 4.1542S5.7154 8.3084 8.00113 8.3084c2.28577 0 4.15417-1.86847 4.15417-4.1542S10.2869 0 8.00113 0ZM15.1305 11.6281c-.1089-.2721-.254-.5261-.4173-.7619-.8344-1.23359-2.1224-2.04991-3.5737-2.24946-.1813-.01812-.3809.01813-.526.12698-.76194.56236-1.66895.8526-2.61229.8526-.94333 0-1.85035-.29024-2.61226-.8526-.14514-.10885-.34469-.16326-.52608-.12698-1.45125.19955-2.75736 1.01587-3.57368 2.24946-.16326.2358-.3084.5079-.41722.7619-.05441.1088-.03629.2358.01812.3447.14514.2539.32653.5079.4898.7256.25395.3447.52607.6531.83448.9433.25395.254.5442.4898.83448.7256C4.48194 15.4376 6.20531 16 7.98309 16s3.50111-.5624 4.93421-1.6327c.2903-.2176.5805-.4716.8345-.7256.2903-.2902.5805-.5986.8345-.9433.1814-.2358.3447-.4717.4898-.7256.0906-.1089.1088-.2359.0544-.3447Z"/>
</svg>
